<mxfile host="app.diagrams.net" agent="Mozilla/5.0 (Macintosh; Intel Mac OS X 10.15; rv:136.0) Gecko/20100101 Firefox/136.0" version="26.1.3">
  <diagram name="Page-1" id="982gyeF62y9UsF95akiq">
    <mxGraphModel dx="1739" dy="1808" grid="1" gridSize="10" guides="1" tooltips="1" connect="1" arrows="1" fold="1" page="1" pageScale="1" pageWidth="827" pageHeight="1169" math="0" shadow="0">
      <root>
        <mxCell id="0" />
        <mxCell id="1" parent="0" />
        <mxCell id="LqAJjOGj0EOW5YZ_SDEt-3" value="" style="sketch=0;outlineConnect=0;fontColor=#232F3E;gradientColor=none;fillColor=light-dark(#000000, #bec8d4);strokeColor=none;dashed=0;verticalLabelPosition=bottom;verticalAlign=top;align=center;html=1;fontSize=12;fontStyle=0;aspect=fixed;pointerEvents=1;shape=mxgraph.aws4.document;" parent="1" vertex="1">
          <mxGeometry x="-19.05" y="-145.75" width="36.9" height="50.5" as="geometry" />
        </mxCell>
        <mxCell id="LqAJjOGj0EOW5YZ_SDEt-4" value="&lt;div&gt;Amélioration&lt;/div&gt;&lt;div&gt;génétique&lt;/div&gt;" style="points=[[0.25,0,0],[0.5,0,0],[0.75,0,0],[1,0.25,0],[1,0.5,0],[1,0.75,0],[0.75,1,0],[0.5,1,0],[0.25,1,0],[0,0.75,0],[0,0.5,0],[0,0.25,0]];shape=mxgraph.bpmn.task;whiteSpace=wrap;rectStyle=rounded;size=10;html=1;taskMarker=abstract;strokeColor=#121212;fontSize=15;fillColor=#FFFFFF;" parent="1" vertex="1">
          <mxGeometry x="220" y="-160" width="120" height="80" as="geometry" />
        </mxCell>
        <mxCell id="LqAJjOGj0EOW5YZ_SDEt-5" value="" style="endArrow=classic;html=1;rounded=0;entryX=0;entryY=0.5;entryDx=0;entryDy=0;entryPerimeter=0;" parent="1" source="LqAJjOGj0EOW5YZ_SDEt-3" target="LqAJjOGj0EOW5YZ_SDEt-4" edge="1">
          <mxGeometry width="50" height="50" relative="1" as="geometry">
            <mxPoint x="116.02" y="99.5" as="sourcePoint" />
            <mxPoint x="184.02" y="99.5" as="targetPoint" />
          </mxGeometry>
        </mxCell>
        <mxCell id="LqAJjOGj0EOW5YZ_SDEt-7" value="" style="endArrow=classic;html=1;rounded=0;exitX=1;exitY=0.5;exitDx=0;exitDy=0;exitPerimeter=0;" parent="1" source="LqAJjOGj0EOW5YZ_SDEt-4" target="ychqdGXQUVl_SIHGtclr-22" edge="1">
          <mxGeometry width="50" height="50" relative="1" as="geometry">
            <mxPoint x="171.02" y="-109.5" as="sourcePoint" />
            <mxPoint x="400" y="-170" as="targetPoint" />
          </mxGeometry>
        </mxCell>
        <mxCell id="LqAJjOGj0EOW5YZ_SDEt-8" value="code source" style="text;html=1;align=center;verticalAlign=middle;resizable=0;points=[];autosize=1;strokeColor=none;fillColor=none;fontSize=15;" parent="1" vertex="1">
          <mxGeometry x="-119.04999999999998" y="-143.75" width="110" height="30" as="geometry" />
        </mxCell>
        <mxCell id="LqAJjOGj0EOW5YZ_SDEt-9" value="code amélioré" style="text;html=1;align=center;verticalAlign=middle;resizable=0;points=[];autosize=1;strokeColor=none;fillColor=none;fontSize=15;" parent="1" vertex="1">
          <mxGeometry x="518.45" y="-95.25" width="120" height="30" as="geometry" />
        </mxCell>
        <mxCell id="LqAJjOGj0EOW5YZ_SDEt-10" value="Test logiciel" style="points=[[0.25,0,0],[0.5,0,0],[0.75,0,0],[1,0.25,0],[1,0.5,0],[1,0.75,0],[0.75,1,0],[0.5,1,0],[0.25,1,0],[0,0.75,0],[0,0.5,0],[0,0.25,0]];shape=mxgraph.bpmn.task;whiteSpace=wrap;rectStyle=rounded;size=10;html=1;taskMarker=abstract;strokeColor=#121212;fontSize=15;fillColor=#FFFFFF;" parent="1" vertex="1">
          <mxGeometry x="38.05" width="120" height="80" as="geometry" />
        </mxCell>
        <mxCell id="LqAJjOGj0EOW5YZ_SDEt-11" value="" style="sketch=0;outlineConnect=0;fontColor=#232F3E;gradientColor=none;fillColor=#000000;strokeColor=none;dashed=0;verticalLabelPosition=bottom;verticalAlign=top;align=center;html=1;fontSize=12;fontStyle=0;aspect=fixed;pointerEvents=1;shape=mxgraph.aws4.documents;" parent="1" vertex="1">
          <mxGeometry x="-82.10000000000002" y="38" width="36.1" height="44" as="geometry" />
        </mxCell>
        <mxCell id="LqAJjOGj0EOW5YZ_SDEt-12" value="" style="endArrow=classic;html=1;rounded=0;entryX=0;entryY=0.75;entryDx=0;entryDy=0;entryPerimeter=0;" parent="1" source="LqAJjOGj0EOW5YZ_SDEt-11" target="LqAJjOGj0EOW5YZ_SDEt-10" edge="1">
          <mxGeometry width="50" height="50" relative="1" as="geometry">
            <mxPoint x="-127.04999999999998" y="-140" as="sourcePoint" />
            <mxPoint x="-79.05000000000004" y="40" as="targetPoint" />
            <Array as="points" />
          </mxGeometry>
        </mxCell>
        <mxCell id="LqAJjOGj0EOW5YZ_SDEt-13" value="suite de tests" style="text;html=1;align=center;verticalAlign=middle;resizable=0;points=[];autosize=1;strokeColor=none;fillColor=none;fontSize=15;" parent="1" vertex="1">
          <mxGeometry x="-119.04999999999998" y="82" width="110" height="30" as="geometry" />
        </mxCell>
        <mxCell id="LqAJjOGj0EOW5YZ_SDEt-14" value="Test métamorphique&lt;br&gt;+ AIM" style="points=[[0.25,0,0],[0.5,0,0],[0.75,0,0],[1,0.25,0],[1,0.5,0],[1,0.75,0],[0.75,1,0],[0.5,1,0],[0.25,1,0],[0,0.75,0],[0,0.5,0],[0,0.25,0]];shape=mxgraph.bpmn.task;whiteSpace=wrap;rectStyle=rounded;size=10;html=1;taskMarker=abstract;strokeColor=#121212;fontSize=15;fillColor=#FFFFFF;" parent="1" vertex="1">
          <mxGeometry x="38.05" y="120" width="120" height="80" as="geometry" />
        </mxCell>
        <mxCell id="LqAJjOGj0EOW5YZ_SDEt-15" value="" style="sketch=0;outlineConnect=0;fontColor=#232F3E;gradientColor=none;fillColor=#000000;strokeColor=none;dashed=0;verticalLabelPosition=bottom;verticalAlign=top;align=center;html=1;fontSize=12;fontStyle=0;aspect=fixed;pointerEvents=1;shape=mxgraph.aws4.documents;" parent="1" vertex="1">
          <mxGeometry x="-82.1" y="158" width="36.1" height="44" as="geometry" />
        </mxCell>
        <mxCell id="LqAJjOGj0EOW5YZ_SDEt-16" value="" style="endArrow=classic;html=1;rounded=0;entryX=0;entryY=0.75;entryDx=0;entryDy=0;entryPerimeter=0;" parent="1" source="LqAJjOGj0EOW5YZ_SDEt-15" target="LqAJjOGj0EOW5YZ_SDEt-14" edge="1">
          <mxGeometry width="50" height="50" relative="1" as="geometry">
            <mxPoint x="-128.04999999999998" y="-400" as="sourcePoint" />
            <mxPoint x="-79.05000000000004" y="160" as="targetPoint" />
          </mxGeometry>
        </mxCell>
        <mxCell id="LqAJjOGj0EOW5YZ_SDEt-17" value="&lt;div&gt;relations&lt;/div&gt;&lt;div&gt;métamorphiques&lt;/div&gt;" style="text;html=1;align=center;verticalAlign=middle;resizable=0;points=[];autosize=1;strokeColor=none;fillColor=none;fontSize=15;" parent="1" vertex="1">
          <mxGeometry x="-134.04999999999998" y="202" width="140" height="50" as="geometry" />
        </mxCell>
        <mxCell id="LqAJjOGj0EOW5YZ_SDEt-18" value="Régression symbolique" style="points=[[0.25,0,0],[0.5,0,0],[0.75,0,0],[1,0.25,0],[1,0.5,0],[1,0.75,0],[0.75,1,0],[0.5,1,0],[0.25,1,0],[0,0.75,0],[0,0.5,0],[0,0.25,0]];shape=mxgraph.bpmn.task;whiteSpace=wrap;rectStyle=rounded;size=10;html=1;taskMarker=abstract;strokeColor=#121212;fontSize=15;fillColor=#FFFFFF;" parent="1" vertex="1">
          <mxGeometry x="-239.04999999999995" y="120" width="120" height="80" as="geometry" />
        </mxCell>
        <mxCell id="LqAJjOGj0EOW5YZ_SDEt-19" value="" style="endArrow=classic;html=1;rounded=0;exitX=1;exitY=0.75;exitDx=0;exitDy=0;exitPerimeter=0;" parent="1" source="LqAJjOGj0EOW5YZ_SDEt-18" target="LqAJjOGj0EOW5YZ_SDEt-15" edge="1">
          <mxGeometry width="50" height="50" relative="1" as="geometry">
            <mxPoint x="-36.099999999999994" y="-410" as="sourcePoint" />
            <mxPoint x="44.900000000000006" y="-410" as="targetPoint" />
          </mxGeometry>
        </mxCell>
        <mxCell id="LqAJjOGj0EOW5YZ_SDEt-20" value="" style="sketch=0;outlineConnect=0;fontColor=#232F3E;gradientColor=none;fillColor=#000000;strokeColor=none;dashed=0;verticalLabelPosition=bottom;verticalAlign=top;align=center;html=1;fontSize=12;fontStyle=0;aspect=fixed;pointerEvents=1;shape=mxgraph.aws4.documents;" parent="1" vertex="1">
          <mxGeometry x="-318.04999999999995" y="158" width="36.1" height="44" as="geometry" />
        </mxCell>
        <mxCell id="LqAJjOGj0EOW5YZ_SDEt-21" value="" style="endArrow=classic;html=1;rounded=0;entryX=0;entryY=0.75;entryDx=0;entryDy=0;entryPerimeter=0;" parent="1" source="LqAJjOGj0EOW5YZ_SDEt-20" target="LqAJjOGj0EOW5YZ_SDEt-18" edge="1">
          <mxGeometry width="50" height="50" relative="1" as="geometry">
            <mxPoint x="-156.1" y="-410" as="sourcePoint" />
            <mxPoint x="-72.1" y="-410" as="targetPoint" />
          </mxGeometry>
        </mxCell>
        <mxCell id="LqAJjOGj0EOW5YZ_SDEt-22" value="&lt;div&gt;commits réparant&lt;/div&gt;&lt;div&gt;des vulnérabilités&lt;/div&gt;" style="text;html=1;align=center;verticalAlign=middle;resizable=0;points=[];autosize=1;strokeColor=none;fillColor=none;fontSize=15;" parent="1" vertex="1">
          <mxGeometry x="-370" y="202" width="140" height="50" as="geometry" />
        </mxCell>
        <mxCell id="LqAJjOGj0EOW5YZ_SDEt-35" value="" style="sketch=0;outlineConnect=0;fontColor=#232F3E;gradientColor=none;fillColor=#000000;strokeColor=none;dashed=0;verticalLabelPosition=bottom;verticalAlign=top;align=center;html=1;fontSize=12;fontStyle=0;aspect=fixed;pointerEvents=1;shape=mxgraph.aws4.documents;" parent="1" vertex="1">
          <mxGeometry x="201.95000000000005" y="18" width="36.1" height="44" as="geometry" />
        </mxCell>
        <mxCell id="LqAJjOGj0EOW5YZ_SDEt-36" value="&lt;div&gt;tests&lt;/div&gt;&lt;div&gt;réussis&lt;/div&gt;" style="text;html=1;align=center;verticalAlign=middle;resizable=0;points=[];autosize=1;strokeColor=none;fillColor=none;fontSize=15;" parent="1" vertex="1">
          <mxGeometry x="185.00000000000006" y="62" width="70" height="50" as="geometry" />
        </mxCell>
        <mxCell id="LqAJjOGj0EOW5YZ_SDEt-38" value="" style="endArrow=classic;html=1;rounded=0;" parent="1" source="LqAJjOGj0EOW5YZ_SDEt-10" target="LqAJjOGj0EOW5YZ_SDEt-35" edge="1">
          <mxGeometry width="50" height="50" relative="1" as="geometry">
            <mxPoint x="52" y="-310" as="sourcePoint" />
            <mxPoint x="132" y="-309" as="targetPoint" />
          </mxGeometry>
        </mxCell>
        <mxCell id="LqAJjOGj0EOW5YZ_SDEt-43" value="" style="sketch=0;outlineConnect=0;fontColor=#232F3E;gradientColor=none;fillColor=#000000;strokeColor=none;dashed=0;verticalLabelPosition=bottom;verticalAlign=top;align=center;html=1;fontSize=12;fontStyle=0;aspect=fixed;pointerEvents=1;shape=mxgraph.aws4.documents;" parent="1" vertex="1">
          <mxGeometry x="201.95000000000007" y="138" width="36.1" height="44" as="geometry" />
        </mxCell>
        <mxCell id="LqAJjOGj0EOW5YZ_SDEt-46" value="" style="endArrow=classic;html=1;rounded=0;" parent="1" source="LqAJjOGj0EOW5YZ_SDEt-14" target="LqAJjOGj0EOW5YZ_SDEt-43" edge="1">
          <mxGeometry width="50" height="50" relative="1" as="geometry">
            <mxPoint x="211" y="-190" as="sourcePoint" />
            <mxPoint x="234" y="-190" as="targetPoint" />
          </mxGeometry>
        </mxCell>
        <mxCell id="LqAJjOGj0EOW5YZ_SDEt-47" value="&lt;div&gt;relations&lt;/div&gt;&lt;div&gt;vérifiées&lt;/div&gt;" style="text;html=1;align=center;verticalAlign=middle;resizable=0;points=[];autosize=1;strokeColor=none;fillColor=none;fontSize=15;" parent="1" vertex="1">
          <mxGeometry x="185.00000000000009" y="182" width="80" height="50" as="geometry" />
        </mxCell>
        <mxCell id="LqAJjOGj0EOW5YZ_SDEt-48" value="" style="endArrow=classic;html=1;rounded=0;entryX=0.5;entryY=1;entryDx=0;entryDy=0;entryPerimeter=0;" parent="1" source="ychqdGXQUVl_SIHGtclr-8" target="LqAJjOGj0EOW5YZ_SDEt-4" edge="1">
          <mxGeometry width="50" height="50" relative="1" as="geometry">
            <mxPoint x="270" y="-190" as="sourcePoint" />
            <mxPoint x="290" y="-110" as="targetPoint" />
            <Array as="points">
              <mxPoint x="280" y="400" />
            </Array>
          </mxGeometry>
        </mxCell>
        <mxCell id="VRw-bLnKxxOZqPA7tqMh-1" value="" style="endArrow=classic;html=1;rounded=0;entryX=0;entryY=0.5;entryDx=0;entryDy=0;entryPerimeter=0;" parent="1" target="ychqdGXQUVl_SIHGtclr-7" edge="1" source="LqAJjOGj0EOW5YZ_SDEt-3">
          <mxGeometry width="50" height="50" relative="1" as="geometry">
            <mxPoint x="200" y="-80" as="sourcePoint" />
            <mxPoint x="167" y="30" as="targetPoint" />
            <Array as="points">
              <mxPoint y="400" />
            </Array>
          </mxGeometry>
        </mxCell>
        <mxCell id="VRw-bLnKxxOZqPA7tqMh-12" value="&lt;div&gt;observations&lt;/div&gt;&lt;div&gt;client/serveur&lt;/div&gt;" style="text;html=1;align=center;verticalAlign=middle;resizable=0;points=[];autosize=1;strokeColor=none;fillColor=none;fontSize=15;" parent="1" vertex="1">
          <mxGeometry x="-355" y="240" width="110" height="50" as="geometry" />
        </mxCell>
        <mxCell id="ychqdGXQUVl_SIHGtclr-1" value="navigateur" style="text;html=1;align=center;verticalAlign=middle;resizable=0;points=[];autosize=1;strokeColor=none;fillColor=none;fontSize=15;" vertex="1" parent="1">
          <mxGeometry x="-109.04999999999998" y="-125.25" width="90" height="30" as="geometry" />
        </mxCell>
        <mxCell id="ychqdGXQUVl_SIHGtclr-3" value="FP-stalker" style="points=[[0.25,0,0],[0.5,0,0],[0.75,0,0],[1,0.25,0],[1,0.5,0],[1,0.75,0],[0.75,1,0],[0.5,1,0],[0.25,1,0],[0,0.75,0],[0,0.5,0],[0,0.25,0]];shape=mxgraph.bpmn.task;whiteSpace=wrap;rectStyle=rounded;size=10;html=1;taskMarker=abstract;strokeColor=#121212;fontSize=15;fillColor=#FFFFFF;" vertex="1" parent="1">
          <mxGeometry x="38.05" y="240" width="120" height="80" as="geometry" />
        </mxCell>
        <mxCell id="ychqdGXQUVl_SIHGtclr-4" value="" style="sketch=0;outlineConnect=0;fontColor=#232F3E;gradientColor=none;fillColor=#000000;strokeColor=none;dashed=0;verticalLabelPosition=bottom;verticalAlign=top;align=center;html=1;fontSize=12;fontStyle=0;aspect=fixed;pointerEvents=1;shape=mxgraph.aws4.documents;" vertex="1" parent="1">
          <mxGeometry x="201.95000000000007" y="258" width="36.1" height="44" as="geometry" />
        </mxCell>
        <mxCell id="ychqdGXQUVl_SIHGtclr-5" value="" style="endArrow=classic;html=1;rounded=0;exitX=1;exitY=0.5;exitDx=0;exitDy=0;exitPerimeter=0;" edge="1" parent="1" target="ychqdGXQUVl_SIHGtclr-4" source="ychqdGXQUVl_SIHGtclr-3">
          <mxGeometry width="50" height="50" relative="1" as="geometry">
            <mxPoint x="157" y="282" as="sourcePoint" />
            <mxPoint x="234" y="-68" as="targetPoint" />
          </mxGeometry>
        </mxCell>
        <mxCell id="ychqdGXQUVl_SIHGtclr-6" value="&lt;div&gt;empreintes&lt;/div&gt;&lt;div&gt;digitales&lt;/div&gt;" style="text;html=1;align=center;verticalAlign=middle;resizable=0;points=[];autosize=1;strokeColor=none;fillColor=none;fontSize=15;" vertex="1" parent="1">
          <mxGeometry x="170.00000000000009" y="302" width="100" height="50" as="geometry" />
        </mxCell>
        <mxCell id="ychqdGXQUVl_SIHGtclr-7" value="SAGA" style="points=[[0.25,0,0],[0.5,0,0],[0.75,0,0],[1,0.25,0],[1,0.5,0],[1,0.75,0],[0.75,1,0],[0.5,1,0],[0.25,1,0],[0,0.75,0],[0,0.5,0],[0,0.25,0]];shape=mxgraph.bpmn.task;whiteSpace=wrap;rectStyle=rounded;size=10;html=1;taskMarker=abstract;strokeColor=#121212;fontSize=15;fillColor=#FFFFFF;" vertex="1" parent="1">
          <mxGeometry x="38.05" y="360" width="120" height="80" as="geometry" />
        </mxCell>
        <mxCell id="ychqdGXQUVl_SIHGtclr-8" value="" style="sketch=0;outlineConnect=0;fontColor=#232F3E;gradientColor=none;fillColor=#000000;strokeColor=none;dashed=0;verticalLabelPosition=bottom;verticalAlign=top;align=center;html=1;fontSize=12;fontStyle=0;aspect=fixed;pointerEvents=1;shape=mxgraph.aws4.documents;" vertex="1" parent="1">
          <mxGeometry x="201.95000000000007" y="378" width="36.1" height="44" as="geometry" />
        </mxCell>
        <mxCell id="ychqdGXQUVl_SIHGtclr-9" value="" style="endArrow=classic;html=1;rounded=0;exitX=1;exitY=0.5;exitDx=0;exitDy=0;exitPerimeter=0;" edge="1" parent="1" source="ychqdGXQUVl_SIHGtclr-7" target="ychqdGXQUVl_SIHGtclr-8">
          <mxGeometry width="50" height="50" relative="1" as="geometry">
            <mxPoint x="157" y="402" as="sourcePoint" />
            <mxPoint x="234" y="52" as="targetPoint" />
          </mxGeometry>
        </mxCell>
        <mxCell id="ychqdGXQUVl_SIHGtclr-10" value="&lt;div&gt;aspects&lt;/div&gt;&lt;div&gt;statiques&lt;/div&gt;" style="text;html=1;align=center;verticalAlign=middle;resizable=0;points=[];autosize=1;strokeColor=none;fillColor=none;fontSize=15;" vertex="1" parent="1">
          <mxGeometry x="180.00000000000009" y="422" width="80" height="50" as="geometry" />
        </mxCell>
        <mxCell id="ychqdGXQUVl_SIHGtclr-11" value="" style="endArrow=classic;html=1;rounded=0;" edge="1" parent="1" source="LqAJjOGj0EOW5YZ_SDEt-35">
          <mxGeometry width="50" height="50" relative="1" as="geometry">
            <mxPoint x="338.9" y="70" as="sourcePoint" />
            <mxPoint x="277.88" y="40" as="targetPoint" />
          </mxGeometry>
        </mxCell>
        <mxCell id="ychqdGXQUVl_SIHGtclr-12" value="" style="endArrow=classic;html=1;rounded=0;entryX=0;entryY=0.25;entryDx=0;entryDy=0;entryPerimeter=0;" edge="1" parent="1" target="LqAJjOGj0EOW5YZ_SDEt-10">
          <mxGeometry width="50" height="50" relative="1" as="geometry">
            <mxPoint y="20" as="sourcePoint" />
            <mxPoint x="310" y="50" as="targetPoint" />
          </mxGeometry>
        </mxCell>
        <mxCell id="ychqdGXQUVl_SIHGtclr-13" value="" style="endArrow=classic;html=1;rounded=0;entryX=0;entryY=0.25;entryDx=0;entryDy=0;entryPerimeter=0;" edge="1" parent="1" target="LqAJjOGj0EOW5YZ_SDEt-14">
          <mxGeometry width="50" height="50" relative="1" as="geometry">
            <mxPoint y="140" as="sourcePoint" />
            <mxPoint x="158.12" y="140" as="targetPoint" />
          </mxGeometry>
        </mxCell>
        <mxCell id="ychqdGXQUVl_SIHGtclr-15" value="" style="endArrow=classic;html=1;rounded=0;entryX=0;entryY=0.5;entryDx=0;entryDy=0;entryPerimeter=0;" edge="1" parent="1" target="ychqdGXQUVl_SIHGtclr-3">
          <mxGeometry width="50" height="50" relative="1" as="geometry">
            <mxPoint y="280" as="sourcePoint" />
            <mxPoint x="158.05" y="258" as="targetPoint" />
          </mxGeometry>
        </mxCell>
        <mxCell id="ychqdGXQUVl_SIHGtclr-17" value="" style="endArrow=classic;html=1;rounded=0;" edge="1" parent="1">
          <mxGeometry width="50" height="50" relative="1" as="geometry">
            <mxPoint x="238.05" y="159.5" as="sourcePoint" />
            <mxPoint x="278.05" y="159.5" as="targetPoint" />
          </mxGeometry>
        </mxCell>
        <mxCell id="ychqdGXQUVl_SIHGtclr-19" value="" style="endArrow=classic;html=1;rounded=0;" edge="1" parent="1">
          <mxGeometry width="50" height="50" relative="1" as="geometry">
            <mxPoint x="238.05" y="279.5" as="sourcePoint" />
            <mxPoint x="278.05" y="279.5" as="targetPoint" />
          </mxGeometry>
        </mxCell>
        <mxCell id="ychqdGXQUVl_SIHGtclr-22" value="" style="sketch=0;outlineConnect=0;fontColor=#232F3E;gradientColor=none;fillColor=light-dark(#000000, #bec8d4);strokeColor=none;dashed=0;verticalLabelPosition=bottom;verticalAlign=top;align=center;html=1;fontSize=12;fontStyle=0;aspect=fixed;pointerEvents=1;shape=mxgraph.aws4.document;" vertex="1" parent="1">
          <mxGeometry x="560" y="-145.75" width="36.9" height="50.5" as="geometry" />
        </mxCell>
        <mxCell id="ychqdGXQUVl_SIHGtclr-23" value="Analyse spectrale" style="points=[[0.25,0,0],[0.5,0,0],[0.75,0,0],[1,0.25,0],[1,0.5,0],[1,0.75,0],[0.75,1,0],[0.5,1,0],[0.25,1,0],[0,0.75,0],[0,0.5,0],[0,0.25,0]];shape=mxgraph.bpmn.task;whiteSpace=wrap;rectStyle=rounded;size=10;html=1;taskMarker=abstract;strokeColor=#121212;fontSize=15;fillColor=#FFFFFF;" vertex="1" parent="1">
          <mxGeometry x="400" y="-40" width="120" height="80" as="geometry" />
        </mxCell>
        <mxCell id="ychqdGXQUVl_SIHGtclr-24" value="" style="endArrow=classic;html=1;rounded=0;" edge="1" parent="1" target="ychqdGXQUVl_SIHGtclr-25">
          <mxGeometry width="50" height="50" relative="1" as="geometry">
            <mxPoint x="280" as="sourcePoint" />
            <mxPoint x="340" y="39.5" as="targetPoint" />
          </mxGeometry>
        </mxCell>
        <mxCell id="ychqdGXQUVl_SIHGtclr-25" value="" style="sketch=0;outlineConnect=0;fontColor=#232F3E;gradientColor=none;fillColor=#000000;strokeColor=none;dashed=0;verticalLabelPosition=bottom;verticalAlign=top;align=center;html=1;fontSize=12;fontStyle=0;aspect=fixed;pointerEvents=1;shape=mxgraph.aws4.documents;" vertex="1" parent="1">
          <mxGeometry x="322.35" y="-22" width="36.1" height="44" as="geometry" />
        </mxCell>
        <mxCell id="ychqdGXQUVl_SIHGtclr-26" value="" style="endArrow=classic;html=1;rounded=0;entryX=0;entryY=0.5;entryDx=0;entryDy=0;entryPerimeter=0;" edge="1" parent="1" source="ychqdGXQUVl_SIHGtclr-25" target="ychqdGXQUVl_SIHGtclr-23">
          <mxGeometry width="50" height="50" relative="1" as="geometry">
            <mxPoint x="290" y="10" as="sourcePoint" />
            <mxPoint x="332" y="10" as="targetPoint" />
          </mxGeometry>
        </mxCell>
        <mxCell id="ychqdGXQUVl_SIHGtclr-27" value="&lt;div&gt;aspects&lt;/div&gt;&lt;div&gt;du code&lt;/div&gt;" style="text;html=1;align=center;verticalAlign=middle;resizable=0;points=[];autosize=1;strokeColor=none;fillColor=none;fontSize=15;" vertex="1" parent="1">
          <mxGeometry x="300.4000000000001" y="22" width="80" height="50" as="geometry" />
        </mxCell>
        <mxCell id="ychqdGXQUVl_SIHGtclr-28" value="" style="sketch=0;outlineConnect=0;fontColor=#232F3E;gradientColor=none;fillColor=light-dark(#000000, #bec8d4);strokeColor=none;dashed=0;verticalLabelPosition=bottom;verticalAlign=top;align=center;html=1;fontSize=12;fontStyle=0;aspect=fixed;pointerEvents=1;shape=mxgraph.aws4.document;" vertex="1" parent="1">
          <mxGeometry x="560" y="-25.25" width="36.9" height="50.5" as="geometry" />
        </mxCell>
        <mxCell id="ychqdGXQUVl_SIHGtclr-29" value="" style="endArrow=classic;html=1;rounded=0;exitX=1;exitY=0.5;exitDx=0;exitDy=0;exitPerimeter=0;" edge="1" parent="1" source="ychqdGXQUVl_SIHGtclr-23" target="ychqdGXQUVl_SIHGtclr-28">
          <mxGeometry width="50" height="50" relative="1" as="geometry">
            <mxPoint x="368" y="10" as="sourcePoint" />
            <mxPoint x="410" y="10" as="targetPoint" />
          </mxGeometry>
        </mxCell>
        <mxCell id="ychqdGXQUVl_SIHGtclr-30" value="&lt;div&gt;graphe de&lt;/div&gt;&lt;div&gt;dépendances&lt;/div&gt;" style="text;html=1;align=center;verticalAlign=middle;resizable=0;points=[];autosize=1;strokeColor=none;fillColor=none;fontSize=15;" vertex="1" parent="1">
          <mxGeometry x="523.45" y="25.25" width="110" height="50" as="geometry" />
        </mxCell>
        <mxCell id="ychqdGXQUVl_SIHGtclr-31" value="Analyse spectrale" style="points=[[0.25,0,0],[0.5,0,0],[0.75,0,0],[1,0.25,0],[1,0.5,0],[1,0.75,0],[0.75,1,0],[0.5,1,0],[0.25,1,0],[0,0.75,0],[0,0.5,0],[0,0.25,0]];shape=mxgraph.bpmn.task;whiteSpace=wrap;rectStyle=rounded;size=10;html=1;taskMarker=abstract;strokeColor=#121212;fontSize=15;fillColor=#FFFFFF;" vertex="1" parent="1">
          <mxGeometry x="400" y="240" width="120" height="80" as="geometry" />
        </mxCell>
        <mxCell id="ychqdGXQUVl_SIHGtclr-32" value="" style="endArrow=classic;html=1;rounded=0;entryX=0;entryY=0.5;entryDx=0;entryDy=0;entryPerimeter=0;" edge="1" parent="1" target="ychqdGXQUVl_SIHGtclr-31">
          <mxGeometry width="50" height="50" relative="1" as="geometry">
            <mxPoint x="280" y="280" as="sourcePoint" />
            <mxPoint x="332" y="10" as="targetPoint" />
          </mxGeometry>
        </mxCell>
      </root>
    </mxGraphModel>
  </diagram>
</mxfile>
